<?xml version="1.0" standalone="no"?>
<!DOCTYPE svg PUBLIC "-//W3C//DTD SVG 20010904//EN"
 "http://www.w3.org/TR/2001/REC-SVG-20010904/DTD/svg10.dtd">
<svg version="1.0" xmlns="http://www.w3.org/2000/svg"
 width="700.000000pt" height="693.000000pt" viewBox="0 0 700.000000 693.000000"
 preserveAspectRatio="xMidYMid meet">

<g transform="translate(0.000000,693.000000) scale(0.100000,-0.100000)"
fill="#000000" stroke="none">
<path d="M0 5145 c0 -1616 1 -1785 16 -1785 8 0 23 7 32 16 15 15 17 15 31 -3
15 -17 31 -19 201 -20 125 -1 184 -5 183 -12 -2 -6 2 -11 7 -11 6 0 10 5 10
10 0 6 15 10 33 11 22 0 27 2 14 7 -16 7 -16 8 3 24 13 12 27 15 42 10 34 -11
142 -6 146 7 5 15 39 14 46 -1 5 -10 7 -10 12 0 3 6 19 12 34 12 16 0 32 5 35
10 3 6 50 10 106 10 57 0 98 4 95 9 -3 5 8 14 26 20 39 14 48 14 48 0 0 -6 -6
-9 -13 -6 -8 3 -14 -1 -14 -10 0 -10 7 -13 21 -9 12 3 31 6 44 6 29 0 29 17 0
23 -17 3 -14 5 10 6 34 1 40 9 20 29 -7 7 -8 12 -2 12 6 0 15 -5 20 -10 7 -7
16 -4 29 10 19 21 65 28 65 10 0 -5 9 -10 20 -10 13 0 20 7 20 20 0 14 7 20
23 21 12 0 16 3 10 6 -10 3 -10 8 1 19 11 11 46 14 151 14 88 0 134 4 130 10
-3 6 1 10 9 10 9 0 16 -4 16 -10 0 -5 9 -10 20 -10 13 0 20 -7 20 -20 0 -17 7
-20 45 -20 28 0 45 4 45 12 0 9 3 9 12 0 7 -7 34 -12 61 -12 30 0 54 -6 64
-16 22 -22 56 -14 64 16 6 25 6 24 10 -5 3 -24 9 -31 32 -33 22 -3 27 -8 27
-31 0 -15 4 -31 9 -36 5 -6 11 -28 14 -50 4 -29 1 -43 -12 -55 -20 -19 -41
-93 -30 -112 5 -9 -3 -37 -21 -74 -42 -87 -80 -172 -80 -180 0 -21 -53 -114
-64 -114 -25 0 -40 -31 -38 -77 1 -25 -4 -57 -12 -71 -13 -25 -15 -26 -137
-27 -69 -1 -153 -9 -189 -17 -91 -22 -266 -82 -287 -100 -7 -5 -18 -6 -24 -2
-19 11 -153 32 -240 37 -42 3 -86 10 -97 16 -11 6 -52 11 -91 11 -83 0 -161
18 -161 38 0 7 -8 12 -17 11 -10 -2 -45 0 -78 4 -33 4 -86 3 -118 -1 -45 -7
-60 -6 -64 4 -2 7 -16 11 -31 9 -27 -3 -94 26 -119 50 -7 8 -13 21 -13 29 0 9
-4 16 -10 16 -5 0 -10 5 -10 11 0 30 -82 71 -125 63 l-35 -6 0 -1429 0 -1429
3500 0 3500 0 0 1405 c0 773 -4 1405 -8 1405 -5 0 -14 -11 -20 -25 -6 -14 -23
-27 -39 -31 -15 -4 -32 -10 -38 -14 -5 -4 -26 -11 -45 -15 -49 -9 -97 -32
-103 -49 -3 -8 -23 -18 -44 -21 -72 -12 -178 -36 -195 -45 -9 -5 -32 -7 -51
-3 -20 3 -68 -4 -118 -17 -70 -18 -114 -22 -269 -23 -178 -2 -262 8 -296 35
-16 12 -59 -6 -96 -41 -28 -26 -41 -30 -157 -42 -69 -8 -136 -13 -149 -12 -12
1 -20 -2 -17 -6 9 -16 -34 -19 -54 -4 -45 31 -243 123 -265 123 -9 0 -16 4
-16 9 0 5 -39 14 -87 20 -49 6 -111 15 -140 20 -30 6 -79 6 -120 1 -172 -22
-173 -22 -173 -5 0 8 -6 15 -13 15 -8 0 -19 12 -26 26 -10 22 -9 26 8 31 13 3
20 17 24 46 7 51 -5 75 -47 92 -28 12 -33 18 -28 40 5 31 20 42 28 21 3 -9 16
-16 28 -16 24 1 66 32 66 51 0 7 3 10 6 6 4 -3 13 0 21 8 8 8 25 15 37 15 14
0 47 24 88 63 36 34 84 77 106 96 23 19 39 37 37 42 -3 4 0 9 6 11 5 2 13 23
16 47 5 33 3 42 -6 37 -8 -6 -11 -2 -9 10 2 15 -4 20 -29 22 -28 3 -32 7 -39
45 -6 38 -7 40 -16 18 -12 -33 -15 -25 -20 39 -4 42 -8 54 -20 52 -8 -1 -15 5
-15 13 0 8 4 15 9 15 4 0 8 14 8 30 0 27 -3 30 -30 30 -16 0 -30 5 -30 11 0 5
4 8 9 4 5 -3 17 2 26 12 14 14 18 14 26 2 8 -11 13 -10 29 10 11 13 20 18 20
12 0 -6 7 -11 15 -11 8 0 15 -5 15 -11 0 -7 15 -10 40 -7 26 2 40 -1 40 -8 0
-7 18 -14 40 -16 36 -3 40 -1 40 19 0 20 5 23 40 23 22 0 40 5 40 10 0 6 53
10 139 10 131 0 140 -1 146 -20 7 -21 25 -28 25 -10 0 6 9 10 20 10 11 0 20
-4 20 -10 0 -5 9 -10 21 -10 11 0 17 4 14 10 -3 6 -1 10 4 10 6 0 11 -4 11 -9
0 -5 11 -8 24 -7 13 0 22 4 19 9 -2 4 3 7 12 7 9 0 13 4 10 10 -3 6 3 10 14
10 12 0 21 -4 21 -10 0 -5 -4 -10 -10 -10 -5 0 -10 -5 -10 -12 0 -9 3 -9 12 0
14 14 68 16 68 2 0 -5 9 -10 20 -10 11 0 20 5 20 10 0 6 11 10 24 10 14 0 28
-4 31 -10 3 -6 18 -10 33 -10 16 0 34 -8 42 -20 8 -12 26 -20 42 -20 15 0 28
-4 28 -10 0 -6 100 -10 280 -10 180 0 280 -4 280 -10 0 -6 33 -10 80 -10 47 0
80 4 80 10 0 6 27 10 60 10 53 0 60 -2 60 -20 0 -20 12 -24 59 -20 14 1 21 -2
17 -9 -4 -6 -16 -11 -27 -11 -11 0 -18 -4 -15 -9 3 -5 23 -9 43 -9 21 0 39 -5
41 -11 5 -14 52 -14 52 0 0 6 7 4 15 -5 8 -8 15 -22 15 -30 0 -9 7 -16 15 -16
9 0 15 -9 15 -25 0 -52 29 -84 78 -85 9 0 12 372 12 1825 l0 1825 -3500 0
-3500 0 0 -1785z m3087 -1177 c-3 -8 -6 -5 -6 6 -1 11 2 17 5 13 3 -3 4 -12 1
-19z m-14 -47 c-6 -3 -15 -24 -21 -46 -6 -26 -10 -32 -11 -17 -1 30 30 101 36
83 3 -7 1 -16 -4 -20z m-404 -7 c10 -9 -45 -3 -59 6 -11 7 -5 8 20 4 19 -4 37
-8 39 -10z m-192 0 c-3 -3 -12 -4 -19 -1 -8 3 -5 6 6 6 11 1 17 -2 13 -5z
m261 -1 c-10 -2 -26 -2 -35 0 -10 3 -2 5 17 5 19 0 27 -2 18 -5z m-211 -89
c-3 -3 -12 -4 -19 -1 -8 3 -5 6 6 6 11 1 17 -2 13 -5z m490 -66 c-2 -13 -4 -5
-4 17 -1 22 1 32 4 23 2 -10 2 -28 0 -40z m-387 27 c-30 -17 -50 -19 -50 -4 0
6 7 9 15 6 8 -4 17 -2 20 3 4 6 14 10 23 10 12 -1 10 -5 -8 -15z m180 4 c41 0
69 -3 63 -6 -22 -8 -14 -30 12 -37 16 -4 22 -11 19 -21 -4 -8 -2 -15 3 -15 6
0 14 -10 20 -22 9 -22 11 -21 28 15 22 46 31 41 15 -7 -6 -20 -10 -44 -8 -53
2 -10 9 8 16 40 8 31 18 55 23 52 11 -7 12 -35 1 -35 -4 0 -14 -28 -21 -62 -8
-35 -18 -68 -22 -73 -4 -6 -11 -31 -15 -55 -4 -25 -10 -47 -15 -50 -4 -3 -13
-43 -19 -90 -6 -47 -15 -87 -20 -90 -5 -3 -13 -23 -19 -45 -5 -22 -14 -56 -19
-76 -6 -22 -6 -43 0 -52 6 -11 2 -29 -11 -54 -43 -79 -39 -78 -145 -65 -52 7
-143 13 -203 13 -59 1 -100 3 -90 6 11 3 17 15 18 36 1 53 6 98 13 104 3 4 6
-2 6 -13 0 -11 11 -24 26 -31 22 -10 25 -10 20 3 -5 12 -1 12 30 -1 l35 -14
-22 30 c-12 17 -28 33 -35 36 -8 3 -14 16 -14 29 0 12 -11 35 -25 50 -16 18
-25 39 -25 60 0 19 -4 34 -10 34 -11 0 -13 -42 -4 -88 5 -23 10 -29 22 -24 14
5 15 4 2 -10 -8 -9 -18 -13 -22 -10 -12 13 -48 275 -46 347 1 44 2 42 8 -21
10 -92 19 -134 31 -134 5 0 9 9 9 20 0 16 7 20 35 20 19 0 35 -5 35 -10 0 -6
11 0 25 14 14 14 25 37 25 51 0 14 6 25 13 26 10 0 10 2 0 6 -7 2 -13 9 -13
15 0 5 6 16 13 23 6 8 18 22 26 31 8 9 22 14 33 11 12 -4 29 2 41 14 22 21 52
25 62 9 3 -5 15 -10 26 -10 14 0 19 7 19 26 0 25 -32 64 -52 64 -4 0 -8 16 -8
35 0 19 -5 35 -11 35 -5 0 -8 4 -4 9 3 5 -3 12 -12 15 -10 3 0 3 22 1 22 -3
74 -5 115 -6z m-463 -51 c-3 -8 -6 -5 -6 6 -1 11 2 17 5 13 3 -3 4 -12 1 -19z
m-210 -85 c-3 -10 -5 -4 -5 12 0 17 2 24 5 18 2 -7 2 -21 0 -30z m3323 -33 c0
-5 -2 -10 -4 -10 -3 0 -8 5 -11 10 -3 6 -1 10 4 10 6 0 11 -4 11 -10z m-3393
-72 c-2 -13 -4 -5 -4 17 -1 22 1 32 4 23 2 -10 2 -28 0 -40z m226 -16 c3 -24
1 -40 -4 -36 -5 3 -9 24 -9 46 0 51 5 47 13 -10z m2350 18 c-3 -11 -9 -20 -14
-20 -10 0 -12 24 -2 33 13 13 21 7 16 -13z m-2461 -117 c0 -13 4 -20 9 -17 5
3 9 -1 9 -8 0 -8 7 -23 16 -34 8 -10 12 -12 8 -4 -4 8 -3 12 1 7 5 -4 10 -23
12 -42 1 -20 12 -45 24 -58 17 -17 21 -18 16 -4 -4 9 -2 17 3 17 6 0 10 -9 10
-20 0 -13 7 -20 20 -20 11 0 20 -4 20 -8 0 -12 -62 -1 -77 13 -6 7 -15 26 -19
41 -4 16 -11 34 -16 41 -25 32 -47 89 -52 136 -5 46 -4 48 5 17 5 -19 10 -45
11 -57z m128 6 c0 -39 -15 -30 -18 11 -2 19 1 29 8 25 5 -3 10 -20 10 -36z
m1837 1 c1 -11 -2 -20 -8 -20 -5 0 -9 9 -9 20 0 11 4 20 8 20 4 0 8 -9 9 -20z
m-1930 -27 c-3 -10 -5 -4 -5 12 0 17 2 24 5 18 2 -7 2 -21 0 -30z m101 -98
l-1 -50 -7 55 c-4 30 -7 45 -8 33 -3 -34 -22 -28 -22 6 0 32 21 47 32 22 4 -9
6 -38 6 -66z m2339 -77 c29 -27 32 -53 4 -38 -25 13 -51 39 -51 51 0 16 23 10
47 -13z m-2484 -182 c1 -33 -4 -60 -10 -64 -6 -4 -15 -21 -19 -37 -4 -17 -25
-67 -46 -112 -31 -67 -42 -81 -56 -76 -16 6 -52 41 -52 51 0 5 11 28 69 155
23 49 41 95 41 103 0 8 4 14 9 14 5 0 12 14 16 31 7 31 7 31 27 12 14 -15 20
-35 21 -77z m2007 -261 c0 -16 -38 -45 -60 -46 -14 0 -19 -3 -12 -6 6 -2 12
-11 12 -18 0 -7 -6 -16 -12 -19 -10 -5 -10 -7 0 -12 6 -3 12 -17 12 -30 0 -21
4 -23 24 -18 16 4 25 1 29 -10 4 -9 13 -16 22 -16 18 0 20 -17 3 -23 -7 -2 -1
-2 13 0 15 2 31 -2 39 -12 14 -17 35 -21 25 -5 -3 6 -1 10 5 10 6 0 8 5 4 11
-4 8 0 8 15 0 15 -9 26 -9 42 -1 11 7 23 9 26 6 3 -2 -12 -14 -33 -25 -22 -11
-49 -25 -60 -32 -19 -10 -30 -6 -82 29 -32 21 -76 42 -96 46 -20 4 -36 11 -36
16 0 6 -6 10 -12 10 -18 0 -208 94 -208 103 0 4 7 7 15 7 8 0 19 9 25 21 8 14
19 19 37 17 22 -2 28 -11 40 -50 17 -59 38 -62 59 -8 9 22 20 40 25 40 5 0 9
7 9 15 0 16 45 39 59 31 4 -3 13 -1 20 3 12 8 51 -19 51 -34z m-1921 -79 c7
-8 8 -16 4 -18 -4 -3 -2 -3 5 -2 7 2 21 -5 32 -16 11 -11 24 -20 29 -20 9 0
134 -111 167 -150 12 -14 38 -43 57 -64 37 -41 59 -89 31 -65 -9 7 -51 11
-112 11 -53 0 -105 4 -114 9 -14 7 -16 6 -12 -6 13 -32 -17 -12 -98 68 -46 45
-96 90 -111 100 -27 18 -28 53 -1 43 19 -7 80 20 88 39 3 9 6 32 6 51 0 36 10
43 29 20z m515 -34 c-4 -21 -13 -32 -30 -36 -17 -5 -24 -13 -23 -29 0 -21 1
-21 10 -2 6 14 8 3 4 -34 -4 -30 -9 -60 -13 -65 -4 -6 -7 -13 -7 -16 -1 -3 -4
-15 -9 -27 -7 -23 -8 -22 -34 10 -15 17 -41 48 -59 67 -35 38 -42 53 -18 44
14 -6 65 40 65 57 0 5 -12 9 -27 9 -26 1 -27 1 -8 13 18 11 146 46 153 42 1
-1 -1 -16 -4 -33z m-801 -6 c20 -30 13 -37 -24 -24 -32 11 -31 10 -23 32 9 23
29 20 47 -8z m1382 2 c20 -9 25 -19 25 -45 0 -20 -4 -32 -10 -28 -5 3 -10 -1
-10 -9 0 -9 6 -16 13 -17 10 0 10 -2 0 -6 -7 -2 -13 -11 -13 -18 0 -9 -10 -12
-32 -9 -18 3 -54 7 -80 10 -63 8 -68 27 -27 94 31 51 33 52 70 46 21 -3 50
-11 64 -18z m-795 -53 c14 -19 14 -19 -2 -6 -10 7 -18 18 -18 24 0 6 1 8 3 6
1 -2 9 -13 17 -24z m1325 -31 c76 -39 115 -70 115 -91 0 -19 22 -40 45 -44 9
-2 25 -15 34 -29 9 -13 11 -21 4 -17 -6 4 -15 2 -19 -4 -4 -8 -9 -7 -16 2 -7
10 -8 9 -4 -6 9 -32 -5 -42 -69 -50 -33 -4 -65 -11 -72 -17 -7 -6 -43 -7 -91
-3 -74 7 -79 9 -75 29 6 29 42 183 54 229 5 20 13 37 17 37 4 0 39 -16 77 -36z
m375 11 c16 -19 1 -19 -24 0 -16 12 -17 15 -4 15 8 0 21 -7 28 -15z m-170 -57
c0 -5 -9 -4 -20 2 -11 6 -20 12 -20 14 0 2 9 2 20 -1 11 -3 20 -9 20 -15z m90
-47 c0 -4 -11 -6 -25 -3 -14 2 -25 6 -25 8 0 2 11 4 25 4 14 0 25 -4 25 -9z
m-25 -21 c8 -13 -5 -13 -25 0 -13 8 -13 10 2 10 9 0 20 -4 23 -10z m595 -14
c0 -19 -7 -23 -51 -31 -29 -5 -38 -3 -43 10 -10 27 2 35 50 35 32 0 44 -4 44
-14z m-124 -23 c-2 -2 -18 0 -37 4 l-34 7 30 6 c25 5 52 -7 41 -17z m-556 -67
c0 -3 -4 -8 -10 -11 -5 -3 -10 -1 -10 4 0 6 5 11 10 11 6 0 10 -2 10 -4z
m-976 -26 c7 -7 0 -10 -22 -10 -18 0 -32 -5 -32 -12 0 -6 -2 -9 -5 -7 -2 3 -2
14 1 26 6 22 37 24 58 3z m166 0 c11 -7 7 -10 -17 -10 -17 0 -35 5 -38 10 -8
13 35 13 55 0z m990 -150 c0 -5 -5 -10 -11 -10 -5 0 -7 5 -4 10 3 6 8 10 11
10 2 0 4 -4 4 -10z m-457 -47 c-7 -2 -19 -2 -25 0 -7 3 -2 5 12 5 14 0 19 -2
13 -5z m102 -13 c-3 -5 -18 -10 -33 -9 -24 0 -25 1 -7 9 28 12 47 12 40 0z
m592 -6 c-3 -3 -12 -4 -19 -1 -8 3 -5 6 6 6 11 1 17 -2 13 -5z m-297 -40 c0
-2 -11 -3 -24 -2 -14 1 -23 5 -20 9 4 7 44 0 44 -7z m523 9 c-7 -2 -19 -2 -25
0 -7 3 -2 5 12 5 14 0 19 -2 13 -5z m-159 -19 c3 -8 2 -12 -4 -9 -6 3 -10 10
-10 16 0 14 7 11 14 -7z m-27 -10 c-3 -3 -12 -4 -19 -1 -8 3 -5 6 6 6 11 1 17
-2 13 -5z m128 -49 c19 -13 19 -14 -5 -8 -24 6 -40 20 -40 36 0 4 6 3 13 -3 6
-6 21 -17 32 -25z m-259 17 c-2 -4 10 -6 28 -4 20 2 37 -2 45 -12 11 -13 7
-15 -31 -12 -57 4 -85 16 -66 27 17 11 31 11 24 1z m364 -22 c0 -6 -9 -5 -20
2 -11 7 -20 16 -20 21 0 4 9 3 20 -3 11 -6 20 -15 20 -20z m-440 10 c18 -12
22 -11 -77 -14 -46 -1 -83 2 -83 7 0 4 -5 5 -12 1 -7 -4 -8 -3 -4 4 9 15 154
16 176 2z m457 -22 c-3 -8 -6 -5 -6 6 -1 11 2 17 5 13 3 -3 4 -12 1 -19z m90
6 c2 -5 -8 -9 -22 -9 -27 0 -33 10 -12 18 16 7 30 3 34 -9z m43 2 c0 -3 -4 -8
-10 -11 -5 -3 -10 -1 -10 4 0 6 5 11 10 11 6 0 10 -2 10 -4z m44 -2 c25 -9 19
-24 -9 -24 -24 0 -32 10 -18 23 8 8 8 8 27 1z m-1161 -16 c45 1 88 -1 95 -6
10 -7 12 -25 6 -71 l-7 -61 -93 0 -94 0 1 78 c0 42 2 72 5 67 2 -6 38 -9 87
-7z m1237 2 c0 -5 -4 -10 -10 -10 -5 0 -10 5 -10 10 0 6 5 10 10 10 6 0 10 -4
10 -10z m-865 -21 c6 -4 25 -10 43 -14 17 -3 32 -10 32 -14 0 -7 86 -41 104
-41 18 0 -29 29 -46 30 -10 0 -18 4 -18 9 0 5 -8 12 -17 14 -10 3 1 5 25 6 23
0 42 6 42 12 0 5 5 7 10 4 6 -4 27 -9 47 -11 20 -3 48 -11 62 -19 14 -8 42
-22 61 -32 19 -10 39 -22 43 -28 5 -6 7 -1 4 12 -3 16 -1 20 10 16 8 -3 12
-12 9 -19 -3 -8 0 -13 6 -11 7 1 13 -5 15 -13 3 -12 -9 -15 -69 -13 -40 1 -86
6 -102 13 -16 6 -31 8 -34 5 -3 -3 1 -5 8 -5 7 0 10 -3 6 -7 -4 -5 -35 -8 -69
-9 -34 0 -104 -4 -154 -9 -91 -8 -93 -8 -93 14 0 15 6 21 23 22 l22 0 -23 10
c-20 8 -23 13 -17 41 4 18 9 35 11 38 4 8 46 6 59 -1z m-725 -69 c0 -59 0 -60
-29 -60 -27 0 -71 27 -99 60 -19 23 -35 53 -25 47 8 -5 86 2 146 12 4 0 7 -26
7 -59z m1101 43 c7 -7 5 -12 -5 -16 -9 -4 -16 -3 -16 2 0 4 -10 13 -22 19 -22
10 -22 10 5 8 15 -2 32 -7 38 -13z m-1354 -8 c21 -14 51 -42 86 -82 17 -20 17
-21 -3 -26 -13 -3 -18 -1 -13 6 4 6 -2 8 -15 5 -12 -4 -22 -2 -22 3 0 5 -6 9
-12 9 -15 0 -108 78 -108 89 0 14 64 10 87 -4z m1457 -21 c20 -20 36 -41 36
-47 0 -11 -35 22 -69 66 -23 29 -5 19 33 -19z m96 1 c6 -19 15 -33 20 -30 14
9 40 -6 40 -23 0 -11 -3 -13 -11 -5 -6 6 -30 8 -55 5 -29 -3 -44 -1 -44 7 0 6
7 11 16 11 10 0 5 9 -15 26 -39 33 -39 39 3 42 31 2 35 -1 46 -33z m-2500 -8
c0 -15 -7 -17 -47 -13 -27 2 -84 5 -128 6 -72 1 -78 2 -56 14 15 8 59 13 127
12 93 -1 104 -3 104 -19z m428 -42 l3 -60 -111 0 -110 0 0 56 c0 31 3 58 6 61
3 4 51 5 107 5 l102 -2 3 -60z m2873 20 c9 -24 12 -42 6 -38 -6 4 -69 5 -140
4 -96 -2 -128 1 -125 9 5 17 79 40 105 33 13 -3 30 0 38 7 12 10 15 9 15 -4 0
-12 10 -16 45 -16 49 0 50 1 35 31 -6 10 -7 19 -3 19 5 0 15 -20 24 -45z
m-3663 28 c-10 -2 -28 -2 -40 0 -13 2 -5 4 17 4 22 1 32 -1 23 -4z m3012 -3
c0 -5 -7 -7 -15 -4 -8 4 -15 8 -15 10 0 2 7 4 15 4 8 0 15 -4 15 -10z m50 6
c0 -3 -4 -8 -10 -11 -5 -3 -10 -1 -10 4 0 6 5 11 10 11 6 0 10 -2 10 -4z m329
-22 c11 -4 9 -8 -7 -20 -17 -12 -49 -15 -145 -13 -67 1 -128 0 -136 -2 -7 -2
-16 2 -18 9 -3 8 6 12 29 12 18 0 40 6 49 13 15 12 195 13 228 1z m1215 4 c-3
-4 6 -8 20 -8 14 0 26 -4 26 -10 0 -6 -128 -10 -365 -10 -363 0 -365 0 -365
21 0 20 2 20 345 18 189 -1 342 -6 339 -11z m-3434 -83 c0 -4 -61 4 -68 9 -6
3 -13 0 -15 -6 -3 -7 -6 9 -6 37 l-1 49 45 -44 c25 -24 45 -45 45 -45z m-810
26 c0 -20 -27 -25 -124 -22 -105 3 -127 8 -105 22 19 12 229 11 229 0z m848
-58 c16 -16 16 -16 -1 -10 -10 4 -23 7 -28 7 -6 0 -7 5 -4 10 9 14 14 13 33
-7z m237 -4 c-10 -15 -25 -10 -19 6 4 8 10 12 15 9 5 -3 7 -10 4 -15z m-292 4
c-7 -2 -19 -2 -25 0 -7 3 -2 5 12 5 14 0 19 -2 13 -5z m-840 -10 c-7 -2 -21
-2 -30 0 -10 3 -4 5 12 5 17 0 24 -2 18 -5z m485 -28 c6 -3 12 -12 12 -21 0
-15 -10 -16 -107 -9 -60 4 -116 8 -125 8 -17 1 -24 17 -14 28 6 5 215 0 234
-6z m370 -6 c51 -1 92 -5 92 -10 0 -5 6 -6 13 -3 7 2 21 -4 31 -15 17 -19 16
-19 -46 -15 -172 10 -203 13 -200 18 1 3 2 13 2 22 0 8 4 13 8 10 5 -3 50 -6
100 -7z m665 -6 c-7 -2 -19 -2 -25 0 -7 3 -2 5 12 5 14 0 19 -2 13 -5z m187
-51 c0 -23 -2 -24 -67 -18 -38 3 -86 5 -107 5 -35 0 -55 12 -56 34 0 4 47 7
105 7 77 0 105 3 105 13 0 23 20 -17 20 -41z m465 34 l30 -14 -35 -2 c-19 0
-46 -7 -60 -15 -16 -9 -56 -14 -112 -15 l-88 0 0 29 0 29 118 1 c80 0 126 -4
147 -13z m645 -47 c0 -3 -6 -6 -14 -6 -8 0 -11 8 -8 20 4 14 7 16 13 5 5 -7 9
-16 9 -19z m220 16 c30 -8 75 -15 100 -16 41 0 43 -1 20 -11 -14 -5 -77 -11
-140 -12 -113 -1 -140 5 -140 34 0 7 -7 10 -15 6 -8 -3 -15 -1 -15 4 0 15 128
12 190 -5z m292 -37 c-7 -7 -12 -8 -12 -2 0 14 12 26 19 19 2 -3 -1 -11 -7
-17z m78 2 c0 -5 -10 -10 -22 -10 -19 0 -20 2 -8 10 19 13 30 13 30 0z"/>
<path d="M2813 3773 c9 -2 23 -2 30 0 6 3 -1 5 -18 5 -16 0 -22 -2 -12 -5z"/>
<path d="M2918 3550 c2 -16 6 -30 8 -30 2 0 4 14 4 30 0 17 -4 30 -8 30 -5 0
-7 -13 -4 -30z"/>
<path d="M2566 3525 c4 -8 8 -15 10 -15 2 0 4 7 4 15 0 8 -4 15 -10 15 -5 0
-7 -7 -4 -15z"/>
<path d="M2891 3474 c0 -11 3 -14 6 -6 3 7 2 16 -1 19 -3 4 -6 -2 -5 -13z"/>
<path d="M2524 3366 c-8 -9 -7 -15 2 -24 17 -15 22 -15 39 2 12 11 10 15 -8
23 -16 7 -25 7 -33 -1z"/>
<path d="M2598 3353 c4 -23 22 -33 22 -12 0 6 9 9 20 6 34 -9 22 7 -13 19 -32
9 -33 9 -29 -13z"/>
<path d="M2460 3250 c0 -5 5 -10 10 -10 6 0 10 5 10 10 0 6 -4 10 -10 10 -5 0
-10 -4 -10 -10z"/>
<path d="M2437 3053 c-4 -3 -7 -15 -7 -25 0 -16 9 -18 83 -18 66 0 84 3 84 14
0 8 -3 14 -6 14 -3 -1 -19 4 -34 10 -31 13 -109 16 -120 5z"/>
<path d="M4140 2630 c0 -5 7 -10 16 -10 8 0 12 5 9 10 -3 6 -10 10 -16 10 -5
0 -9 -4 -9 -10z"/>
<path d="M2445 2430 c3 -5 13 -10 21 -10 8 0 14 -4 14 -10 0 -5 15 -10 33 -9
l32 0 -40 19 c-45 21 -69 25 -60 10z"/>
<path d="M3970 2499 c0 -5 5 -7 10 -4 6 3 10 8 10 11 0 2 -4 4 -10 4 -5 0 -10
-5 -10 -11z"/>
<path d="M2470 1880 c20 -13 97 -13 105 0 4 6 -17 10 -57 10 -44 0 -59 -3 -48
-10z"/>
<path d="M5000 3555 c0 -8 9 -15 20 -15 11 0 20 7 20 15 0 8 -9 15 -20 15 -11
0 -20 -7 -20 -15z"/>
<path d="M4900 3544 c-24 -13 -24 -14 18 -14 42 0 56 12 26 24 -9 3 -16 6 -17
5 -1 -1 -13 -7 -27 -15z"/>
<path d="M5000 3501 c0 -6 7 -11 15 -11 10 0 15 -11 15 -35 0 -49 19 -87 35
-72 7 7 11 15 8 20 -2 4 3 7 11 7 12 0 16 10 16 35 0 30 -3 35 -22 35 -19 0
-20 2 -8 10 12 8 9 10 -12 10 -14 0 -33 3 -42 6 -9 3 -16 1 -16 -5z"/>
<path d="M2052 3470 c0 -14 2 -19 5 -12 2 6 2 18 0 25 -3 6 -5 1 -5 -13z"/>
<path d="M2080 3370 c0 -5 5 -10 11 -10 5 0 7 5 4 10 -3 6 -8 10 -11 10 -2 0
-4 -4 -4 -10z"/>
<path d="M2035 3310 c3 -5 8 -10 11 -10 2 0 4 5 4 10 0 6 -5 10 -11 10 -5 0
-7 -4 -4 -10z"/>
<path d="M584 3257 c-21 -22 4 -54 47 -61 21 -3 39 -11 39 -16 0 -6 22 -10 49
-10 28 0 53 -4 56 -10 8 -13 52 -13 60 0 4 6 10 8 14 6 4 -3 13 -1 21 4 8 5
22 5 32 -1 23 -12 23 0 1 17 -13 9 -22 9 -30 2 -10 -8 -13 -6 -13 6 0 21 -43
48 -64 40 -9 -3 -16 -1 -16 4 0 7 -14 9 -36 7 -23 -3 -40 0 -50 10 -18 18 -94
19 -110 2z"/>
<path d="M5295 2560 c3 -5 8 -10 11 -10 2 0 4 5 4 10 0 6 -5 10 -11 10 -5 0
-7 -4 -4 -10z"/>
</g>
</svg>
